<svg width="106" height="28" viewBox="0 0 106 28" fill="none" xmlns="http://www.w3.org/2000/svg">
<path d="M2.03139 1.60974C1.62962 1.60974 1.23687 1.72887 0.90281 1.95209C0.56875 2.1753 0.308382 2.49256 0.154631 2.86374C0.000879699 3.23493 -0.039348 3.64338 0.0390337 4.03743C0.117415 4.43148 0.310886 4.79344 0.594981 5.07753C0.879076 5.36163 1.24103 5.5551 1.63509 5.63348C2.02914 5.71187 2.43758 5.67164 2.80877 5.51788C3.17996 5.36413 3.49722 5.10376 3.72043 4.7697C3.94364 4.43564 4.06278 4.0429 4.06278 3.64113H5.57649C5.1232 4.24147 4.80976 4.9355 4.65909 5.67252C4.65123 5.71183 4.64336 5.75181 4.63616 5.79243C4.62436 5.85796 4.61388 5.92349 4.6047 5.99426C4.60011 6.02702 4.59618 6.05979 4.59225 6.09255C4.58832 6.12532 4.58439 6.16398 4.58111 6.19937C4.57521 6.25441 4.57063 6.30814 4.56801 6.36384C4.56801 6.38547 4.56801 6.40775 4.56407 6.42937C4.56014 6.451 4.5608 6.4949 4.56014 6.52308C4.56014 6.53029 4.56014 6.53749 4.56014 6.54405C4.56014 6.5506 4.56014 6.56109 4.56014 6.57026C4.56014 6.60892 4.56014 6.64824 4.56014 6.68821C4.5624 8.57294 5.31215 10.3798 6.64491 11.7125C7.97768 13.0451 9.78462 13.7947 11.6694 13.7968H22.8368C23.1076 13.7967 23.3758 13.8508 23.6255 13.9559C23.8752 14.061 24.1013 14.215 24.2906 14.4088C24.4799 14.6026 24.6285 14.8323 24.7277 15.0844C24.8268 15.3364 24.8746 15.6058 24.8681 15.8766C24.8419 16.986 23.9088 17.8589 22.7994 17.8589H7.26517C7.08637 17.8591 6.91489 17.9299 6.78809 18.056C6.6613 18.182 6.58947 18.3531 6.58826 18.5319C6.58817 18.9764 6.67567 19.4167 6.84576 19.8274C7.01586 20.2382 7.26521 20.6114 7.57957 20.9258C7.89393 21.2401 8.26715 21.4895 8.6779 21.6596C9.08865 21.8297 9.52889 21.9172 9.97347 21.9171H10.6523C10.6523 22.4558 10.8664 22.9725 11.2473 23.3535C11.6283 23.7345 12.145 23.9485 12.6837 23.9485C13.2225 23.9485 13.7392 23.7345 14.1201 23.3535C14.5011 22.9725 14.7151 22.4558 14.7151 21.9171H18.7779C18.7648 22.1917 18.8077 22.466 18.9037 22.7236C18.9998 22.9811 19.1472 23.2165 19.3369 23.4155C19.5266 23.6144 19.7547 23.7728 20.0074 23.881C20.2601 23.9892 20.5321 24.045 20.807 24.045C21.0819 24.045 21.3539 23.9892 21.6066 23.881C21.8593 23.7728 22.0874 23.6144 22.2771 23.4155C22.4668 23.2165 22.6142 22.9811 22.7103 22.7236C22.8064 22.466 22.8492 22.1917 22.8361 21.9171H22.8453C24.4615 21.9166 26.0114 21.2742 27.154 20.131C28.2966 18.9878 28.9382 17.4375 28.9378 15.8213C28.9374 14.205 28.2949 12.6551 27.1517 11.5125C26.0085 10.37 24.4583 9.72831 22.842 9.72874H11.6661C10.8612 9.72806 10.0892 9.40913 9.51845 8.8415C8.94775 8.27387 8.62466 7.5036 8.61965 6.69869C8.61844 6.56381 8.64391 6.43003 8.69461 6.30503C8.74531 6.18004 8.82023 6.06631 8.91506 5.97038C9.00989 5.87446 9.12275 5.79824 9.24715 5.7461C9.37156 5.69397 9.50504 5.66696 9.63993 5.66662H29.6105C30.5083 5.66662 31.3693 5.30996 32.0042 4.67511C32.639 4.04026 32.9957 3.17922 32.9957 2.28141C32.9958 2.19249 32.9783 2.10442 32.9443 2.02226C32.9103 1.94009 32.8605 1.86544 32.7976 1.80256C32.7347 1.73969 32.6601 1.68983 32.5779 1.65584C32.4957 1.62186 32.4077 1.60441 32.3188 1.60449H2.52613L2.03139 1.60974Z" fill="#F97316"/>
<path d="M104.456 1.55975L105.09 4.1619C105.149 4.40484 105.142 4.65917 105.07 4.89849C104.998 5.13782 104.863 5.35342 104.679 5.52292L91.2945 17.8502C91.1995 17.9377 91.0838 17.9994 90.9582 18.0296C90.8327 18.0598 90.7015 18.0574 90.5771 18.0227C90.4527 17.988 90.3393 17.9221 90.2475 17.8312C90.1558 17.7404 90.0887 17.6276 90.0528 17.5035L89.5895 15.2585C89.5373 15.0044 89.5514 14.7411 89.6305 14.494C89.7096 14.2469 89.8509 14.0243 90.041 13.8477L94.1503 10.0352L84.2463 18.0193C84.1475 18.0921 84.0324 18.1399 83.9111 18.1584C83.7897 18.177 83.6657 18.1657 83.5496 18.1257C83.4335 18.0857 83.3289 18.018 83.2448 17.9286C83.1607 17.8392 83.0996 17.7306 83.0668 17.6123L82.5628 15.3247C82.5029 15.0541 82.5188 14.7721 82.6088 14.5099C82.6987 14.2477 82.8592 14.0154 83.0727 13.8385L87.6597 10.0379L75.6908 17.9072C75.5541 17.9974 75.3981 18.0542 75.2355 18.0732C75.0728 18.0922 74.9079 18.0729 74.7541 18.0167C74.6002 17.9605 74.4617 17.8691 74.3495 17.7497C74.2374 17.6303 74.1548 17.4863 74.1083 17.3292L73.5323 15.3889C73.5177 15.3394 73.4918 15.294 73.4566 15.2562C73.4215 15.2184 73.3781 15.1892 73.3298 15.1709C73.2815 15.1526 73.2297 15.1458 73.1783 15.1508C73.1269 15.1559 73.0774 15.1728 73.0337 15.2002L61.6972 22.3035C61.4926 22.4334 61.2582 22.5087 61.0163 22.5223C60.7743 22.5358 60.533 22.4871 60.3152 22.3808L57.8808 21.1948C57.7371 21.1247 57.6145 21.0179 57.5252 20.8852C57.436 20.7525 57.3833 20.5987 57.3725 20.4392C57.3618 20.2796 57.3933 20.1201 57.4639 19.9766C57.5345 19.8332 57.6417 19.7109 57.7746 19.6221L61.2038 17.3358C61.2038 17.3358 51.6982 15.4558 65.1827 4.90171C78.6672 -5.65234 82.4783 4.02232 82.8892 4.66712C82.8892 4.66712 79.7818 -1.31303 67.6452 8.1847C67.6452 8.1847 61.3132 13.4545 62.7791 14.4257C64.245 15.3968 74.7394 8.71286 75.9707 8.65389C77.2019 8.59491 79.2536 10.5889 79.2536 10.5889L92.0848 1.5414C92.1672 1.48344 92.2634 1.44801 92.3637 1.43861C92.464 1.42921 92.565 1.44616 92.6568 1.4878C92.7485 1.52944 92.8278 1.59432 92.8868 1.67601C92.9458 1.75771 92.9824 1.85338 92.993 1.95358L93.3862 5.66381L97.9732 1.67377C98.0518 1.60533 98.1474 1.55942 98.25 1.54088C98.3525 1.52235 98.4582 1.53189 98.5558 1.56848C98.6533 1.60508 98.7392 1.66738 98.8043 1.74878C98.8693 1.83018 98.9112 1.92766 98.9254 2.0309L99.3651 5.19462L103.498 1.27405C103.572 1.20467 103.662 1.15587 103.761 1.13254C103.859 1.1092 103.962 1.11215 104.059 1.14108C104.156 1.17001 104.244 1.2239 104.314 1.29738C104.383 1.37085 104.432 1.46133 104.456 1.55975Z" fill="#F97316"/>
<path d="M37.1115 21.1253L37.8199 23.1429C37.8586 23.2526 37.924 23.3508 38.0102 23.4289C38.0964 23.507 38.2007 23.5623 38.3136 23.59C38.4265 23.6177 38.5446 23.6169 38.6571 23.5876C38.7696 23.5582 38.8731 23.5014 38.9581 23.4221L47.6309 15.3279L48.4493 17.8574C48.4856 17.9692 48.5494 18.0701 48.6349 18.1507C48.7204 18.2314 48.8248 18.2892 48.9386 18.3188C49.0523 18.3485 49.1717 18.349 49.2857 18.3203C49.3997 18.2917 49.5046 18.2348 49.5908 18.1549L63.0426 5.69392C63.2122 5.53688 63.3402 5.34024 63.4153 5.12159C63.4903 4.90295 63.5099 4.66911 63.4724 4.44101L63.0229 1.69864C63.0024 1.57376 62.9484 1.45678 62.8666 1.36017C62.7849 1.26355 62.6785 1.19089 62.5588 1.14995C62.439 1.109 62.3104 1.10129 62.1866 1.12764C62.0628 1.15399 61.9485 1.2134 61.8558 1.29957L52.9885 9.54963L52.748 6.83477C52.7366 6.7035 52.6885 6.57808 52.609 6.47295C52.5296 6.36781 52.4221 6.28721 52.2989 6.24041C52.1758 6.1936 52.0419 6.18248 51.9127 6.20833C51.7835 6.23419 51.6642 6.29596 51.5685 6.38656L37.4739 19.6417C37.2763 19.8273 37.1369 20.0663 37.0726 20.3297C37.0082 20.5931 37.0218 20.8695 37.1115 21.1253Z" fill="#F97316"/>
<path d="M30.6981 19.4686C30.5066 19.6477 30.3692 19.877 30.3016 20.1304C30.2339 20.3837 30.2387 20.651 30.3155 20.9017L31.0205 23.0373C31.0567 23.1492 31.1205 23.2501 31.2059 23.3308C31.2914 23.4116 31.3958 23.4695 31.5096 23.4992C31.6234 23.5289 31.7428 23.5294 31.8568 23.5008C31.9708 23.4722 32.0758 23.4153 32.1621 23.3355L45.6138 10.8745C45.7835 10.7171 45.9116 10.5202 45.9866 10.3012C46.0617 10.0822 46.0812 9.84803 46.0437 9.61964L45.5941 6.87791C45.5737 6.75298 45.5198 6.63593 45.4381 6.53923C45.3564 6.44253 45.25 6.36979 45.1302 6.32877C45.0105 6.28775 44.8818 6.27999 44.758 6.3063C44.6342 6.33261 44.5198 6.39202 44.4271 6.47819L30.6981 19.4686Z" fill="#F97316"/>
<path d="M49.1452 23.9956H51.1694C51.3005 23.9963 51.4289 24.0327 51.5408 24.101C51.6527 24.1692 51.7439 24.2666 51.8045 24.3828C51.8652 24.499 51.893 24.6296 51.885 24.7604C51.877 24.8912 51.8335 25.0174 51.7592 25.1253L50.4827 26.9693C50.3884 27.1052 50.2626 27.2162 50.1161 27.2929C49.9696 27.3696 49.8067 27.4096 49.6413 27.4097H47.6472C47.5167 27.4092 47.3888 27.3733 47.277 27.3059C47.1653 27.2384 47.074 27.1419 47.0128 27.0266C46.9517 26.9113 46.923 26.7815 46.9298 26.6512C46.9366 26.5208 46.9787 26.3948 47.0516 26.2865L48.2966 24.4451C48.3905 24.3065 48.5169 24.193 48.6649 24.1146C48.8129 24.0362 48.9778 23.9954 49.1452 23.9956Z" fill="#F97316"/>
<path d="M49.1451 20.1084H54.871C55.002 20.1092 55.1303 20.1456 55.2421 20.2138C55.3539 20.282 55.445 20.3794 55.5056 20.4955C55.5663 20.6116 55.5941 20.742 55.5862 20.8727C55.5783 21.0034 55.535 21.1295 55.4608 21.2375L54.1836 23.0821C54.0894 23.218 53.9636 23.3291 53.8171 23.4058C53.6706 23.4825 53.5076 23.5225 53.3422 23.5225H47.6412C47.5107 23.522 47.3828 23.4862 47.2711 23.4187C47.1593 23.3512 47.068 23.2547 47.0069 23.1394C46.9457 23.0241 46.917 22.8943 46.9238 22.764C46.9307 22.6336 46.9727 22.5076 47.0456 22.3993L48.2906 20.558C48.3851 20.4185 48.5124 20.3044 48.6615 20.226C48.8106 20.1476 48.9767 20.1072 49.1451 20.1084Z" fill="#F97316"/>
<path d="M44.4029 2.48535H46.4258C46.5569 2.48605 46.6852 2.52248 46.7972 2.59071C46.9091 2.65894 47.0003 2.75639 47.0609 2.87258C47.1216 2.98877 47.1494 3.1193 47.1414 3.25013C47.1334 3.38096 47.0899 3.50713 47.0155 3.61507L45.741 5.45905C45.6469 5.59495 45.5213 5.70601 45.3748 5.78271C45.2284 5.8594 45.0656 5.89944 44.9003 5.8994H42.9056C42.775 5.89908 42.647 5.8633 42.5351 5.79588C42.4233 5.72845 42.3319 5.63192 42.2707 5.51659C42.2095 5.40127 42.1807 5.27147 42.1875 5.14108C42.1943 5.01068 42.2364 4.88458 42.3093 4.77624L43.5543 2.93488C43.6482 2.79626 43.7747 2.68279 43.9226 2.60442C44.0706 2.52605 44.2355 2.48516 44.4029 2.48535Z" fill="#F97316"/>
</svg>
